<svg width="32" height="32" viewBox="0 0 32 32" fill="none" xmlns="http://www.w3.org/2000/svg">
<path d="M16 28.0001C15.6022 28.0001 15.2207 27.8421 14.9394 27.5608C14.6581 27.2795 14.5 26.8979 14.5 26.5001V8.9261L8.61805 15.5001C8.35212 15.794 7.98071 15.9706 7.58495 15.9915C7.18919 16.0124 6.80124 15.8758 6.50584 15.6116C6.21045 15.3474 6.03163 14.977 6.00843 14.5814C5.98524 14.1858 6.11956 13.797 6.38205 13.5001L14.882 4.0001C15.0228 3.84248 15.1952 3.71636 15.388 3.63001C15.5809 3.54366 15.7898 3.49902 16.001 3.49902C16.2123 3.49902 16.4212 3.54366 16.6141 3.63001C16.8069 3.71636 16.9793 3.84248 17.1201 4.0001L25.6201 13.5001C25.7527 13.6467 25.8551 13.8181 25.9213 14.0044C25.9875 14.1907 26.0162 14.3882 26.0058 14.5857C25.9954 14.7831 25.946 14.9766 25.8605 15.1549C25.7751 15.3332 25.6552 15.4928 25.5079 15.6246C25.3605 15.7564 25.1885 15.8578 25.0019 15.9229C24.8152 15.988 24.6174 16.0156 24.4201 16.004C24.2227 15.9925 24.0296 15.942 23.8518 15.8555C23.674 15.769 23.515 15.6482 23.3841 15.5001L17.5 8.9261V26.5001C17.5 26.8979 17.342 27.2795 17.0607 27.5608C16.7794 27.8421 16.3979 28.0001 16 28.0001Z" fill="white"/>
</svg>
